<?xml version="1.0" standalone="no"?><!DOCTYPE svg PUBLIC "-//W3C//DTD SVG 1.1//EN" "http://www.w3.org/Graphics/SVG/1.1/DTD/svg11.dtd"><svg width="128" height="128" viewBox="0 0 128 128" version="1.1" xmlns="http://www.w3.org/2000/svg" xmlns:xlink="http://www.w3.org/1999/xlink"><defs><style type="text/css"><![CDATA[
@font-face { font-family: ifont; src: url("http://at.alicdn.com/t/font_1442373896_4754455.eot?#iefix") format("embedded-opentype"), url("http://at.alicdn.com/t/font_1442373896_4754455.woff") format("woff"), url("http://at.alicdn.com/t/font_1442373896_4754455.ttf") format("truetype"), url("http://at.alicdn.com/t/font_1442373896_4754455.svg#ifont") format("svg"); }

]]></style></defs><g class="transform-group"><g transform="scale(0.125, 0.125)"><path d="M679.481 431.901c55.827 0 99.518-43.691 99.518-99.518s-46.117-99.518-99.518-99.518c-55.827 0-99.518 46.117-99.518 99.518 0 53.399 43.691 99.518 99.518 99.518zM50.821 660.063c-14.563 0-24.272 12.137-24.272 26.7s12.137 26.7 26.7 26.7h468.461c0 33.982 2.427 65.536 4.854 82.527 0 9.709 9.709 19.419 21.845 19.419h266.998c9.709 0 19.419-7.282 21.845-19.419 2.427-16.991 4.854-48.545 4.854-82.527h131.072c14.563 0 26.7-12.137 26.7-26.7s-12.137-26.7-26.7-26.7h-135.926c-9.709-94.663-46.117-196.608-157.772-196.608s-145.635 101.945-155.344 196.608zM325.101 400.347c53.399 0 97.090-43.691 97.090-97.090s-43.691-97.090-97.090-97.090c-53.399 0-97.090 43.691-97.090 97.090 0 55.827 43.691 97.090 97.090 97.090zM478.018 660.063c0-63.109-12.137-140.781-53.399-186.899-26.7-26.7-58.254-41.264-99.518-41.264-41.264 0-75.245 14.563-99.518 41.264-43.691 48.545-53.399 126.218-53.399 186.899z" fill="#eb4f38"></path></g></g></svg>