<?xml version="1.0" standalone="no"?><!DOCTYPE svg PUBLIC "-//W3C//DTD SVG 1.1//EN" "http://www.w3.org/Graphics/SVG/1.1/DTD/svg11.dtd"><svg width="128" height="128" viewBox="0 0 128 128" version="1.1" xmlns="http://www.w3.org/2000/svg" xmlns:xlink="http://www.w3.org/1999/xlink"><defs><style type="text/css"><![CDATA[
@font-face { font-family: ifont; src: url("http://at.alicdn.com/t/font_1442373896_4754455.eot?#iefix") format("embedded-opentype"), url("http://at.alicdn.com/t/font_1442373896_4754455.woff") format("woff"), url("http://at.alicdn.com/t/font_1442373896_4754455.ttf") format("truetype"), url("http://at.alicdn.com/t/font_1442373896_4754455.svg#ifont") format("svg"); }

]]></style></defs><g class="transform-group"><g transform="scale(0.125, 0.125)"><path d="M952.429964 786.15601 72.29249 786.15601c-37.805024 0-68.561515-30.756491-68.561515-68.561515L3.730974 139.971915c0-37.805024 30.756491-68.561515 68.561515-68.561515l880.137475 0c37.805024 0 68.561515 30.756491 68.561515 68.561515l0 577.62258C1020.99148 755.400542 990.236012 786.15601 952.429964 786.15601zM72.29249 112.342648c-15.234983 0-27.629267 12.394285-27.629267 27.629267l0 577.62258c0 15.234983 12.394285 27.629267 27.629267 27.629267l880.137475 0c15.234983 0 27.629267-12.394285 27.629267-27.629267L980.059232 139.971915c0-15.234983-12.394285-27.629267-27.629267-27.629267L72.29249 112.342648zM461.267549 768.759805l102.33062 0 0 202.091718-102.33062 0 0-202.091718ZM696.107111 989.673194 329.269235 989.673194l0-21.972431c0-33.642215 27.272133-60.915371 60.915371-60.915371l245.007133 0c33.642215 0 60.915371 27.272133 60.915371 60.915371L696.107111 989.673194zM26.897603 616.804974l968.511221 0 0 40.932248-968.511221 0 0-40.932248ZM513.199315 703.527105m-28.395724 0a27.749 27.749 0 1 0 56.791447 0 27.749 27.749 0 1 0-56.791447 0Z" fill="#eb4f38"></path></g></g></svg>