<?xml version="1.0" standalone="no"?><!DOCTYPE svg PUBLIC "-//W3C//DTD SVG 1.1//EN" "http://www.w3.org/Graphics/SVG/1.1/DTD/svg11.dtd"><svg width="128" height="128" viewBox="0 0 128 128" version="1.1" xmlns="http://www.w3.org/2000/svg" xmlns:xlink="http://www.w3.org/1999/xlink"><defs><style type="text/css"><![CDATA[
@font-face { font-family: ifont; src: url("http://at.alicdn.com/t/font_1442373896_4754455.eot?#iefix") format("embedded-opentype"), url("http://at.alicdn.com/t/font_1442373896_4754455.woff") format("woff"), url("http://at.alicdn.com/t/font_1442373896_4754455.ttf") format("truetype"), url("http://at.alicdn.com/t/font_1442373896_4754455.svg#ifont") format("svg"); }

]]></style></defs><g class="transform-group"><g transform="scale(0.125, 0.125)"><path d="M558.8 956c-116 0-225.8-44.4-309.2-125.2-8.4-8-8.6-21.4-0.4-29.8 8-8.4 21.4-8.6 29.8-0.4 75.4 73.2 174.8 113.4 279.8 113.4 221.6 0 402-180.4 402-402 0-221.6-180.4-402-402-402s-402 180.4-402 402c0 27.4 2.8 54.6 8.2 81 2.4 11.4-5 22.4-16.4 24.8-11.4 2.4-22.4-5-24.8-16.4-6-29.2-9-59.4-9-89.4 0-244.8 199.2-444 444-444s444 199.2 444 444S803.6 956 558.8 956zM150 640.8c-5.4 0-10.8-2-14.8-6.2l-107.8-107.8c-8.2-8.2-8.2-21.4 0-29.8s21.4-8.2 29.8 0L150 590l93-93c8.2-8.2 21.4-8.2 29.8 0s8.2 21.4 0 29.8l-107.8 107.8C160.8 638.8 155.4 640.8 150 640.8zM527.4 484.8c-7.4 0-14.4-3.8-18.2-10.6l-110.2-193.6c-5.8-10-2.2-23 7.8-28.6 10.2-5.8 23-2.2 28.6 7.8l110.2 193.6c5.8 10 2.2 23-7.8 28.6C534.4 484 530.8 484.8 527.4 484.8zM603.4 484.8c-3.6 0-7-0.8-10.4-2.8-10-5.8-13.6-18.6-7.8-28.6l110.2-193.6c5.8-10 18.6-13.6 28.6-7.8 10 5.8 13.6 18.6 7.8 28.6l-110.2 193.6C617.8 481 610.8 484.8 603.4 484.8zM713.8 484.8 404 484.8c-11.6 0-21-9.4-21-21 0-11.6 9.4-21 21-21l309.8 0c11.6 0 21 9.4 21 21C734.8 475.4 725.4 484.8 713.8 484.8zM687.6 611.6 430.2 611.6c-11.6 0-21-9.4-21-21 0-11.6 9.4-21 21-21l257.4 0c11.6 0 21 9.4 21 21C708.6 602.2 699.2 611.6 687.6 611.6zM558.8 787.6c-11.6 0-21-9.4-21-21L537.8 463.8c0-11.6 9.4-21 21-21 11.6 0 21 9.4 21 21l0 302.8C579.8 778.2 570.4 787.6 558.8 787.6z" fill="#eb4f38"></path></g></g></svg>