<?xml version="1.0" standalone="no"?><!DOCTYPE svg PUBLIC "-//W3C//DTD SVG 1.1//EN" "http://www.w3.org/Graphics/SVG/1.1/DTD/svg11.dtd"><svg width="128" height="128" viewBox="0 0 128 128" version="1.1" xmlns="http://www.w3.org/2000/svg" xmlns:xlink="http://www.w3.org/1999/xlink"><defs><style type="text/css"><![CDATA[
@font-face { font-family: ifont; src: url("http://at.alicdn.com/t/font_1442373896_4754455.eot?#iefix") format("embedded-opentype"), url("http://at.alicdn.com/t/font_1442373896_4754455.woff") format("woff"), url("http://at.alicdn.com/t/font_1442373896_4754455.ttf") format("truetype"), url("http://at.alicdn.com/t/font_1442373896_4754455.svg#ifont") format("svg"); }

]]></style></defs><g class="transform-group"><g transform="scale(0.125, 0.125)"><path d="M78.268086 868.725564c227.149417-69.941955 444.643939-192.405101 578.479087-407.410943 38.240953-61.447491 73.365938-136.365784 86.773296-212.579583-21.674649 18.117636-43.349297 36.235272-65.025992 54.353932-23.629163 19.741623-103.029538-6.500041-70.906933-33.356712 54.640458-45.674249 109.301382-91.348498 163.942863-137.003304 20.441565-17.090237 62.425771-13.654998 76.130911 13.366426 35.721573 70.547753 71.462588 141.065829 107.183138 211.603349 16.842597 33.242102-65.683978 37.541011-81.343633 6.631024-16.174378-31.937386-32.360012-63.885006-48.543599-95.832625-16.132422 78.784344-54.393841 155.029866-94.106308 218.810494C595.536067 704.719256 364.49911 826.999231 136.291594 897.269667 117.762589 902.965389 37.940612 881.145431 78.268086 868.725564L78.268086 868.725564 78.268086 868.725564z" fill="#eb4f38"></path></g></g></svg>