<?xml version="1.0" standalone="no"?><!DOCTYPE svg PUBLIC "-//W3C//DTD SVG 1.1//EN" "http://www.w3.org/Graphics/SVG/1.1/DTD/svg11.dtd"><svg width="32.5" height="32" viewBox="0 0 32.5 32" version="1.1" xmlns="http://www.w3.org/2000/svg" xmlns:xlink="http://www.w3.org/1999/xlink"><defs><style type="text/css"><![CDATA[
@font-face { font-family: ifont; src: url("http://at.alicdn.com/t/font_1442373896_4754455.eot?#iefix") format("embedded-opentype"), url("http://at.alicdn.com/t/font_1442373896_4754455.woff") format("woff"), url("http://at.alicdn.com/t/font_1442373896_4754455.ttf") format("truetype"), url("http://at.alicdn.com/t/font_1442373896_4754455.svg#ifont") format("svg"); }

]]></style></defs><g class="transform-group"><g transform="scale(0.03125, 0.03125)"><path d="M1024 748.8c-3.2 9.6-3.2 19.2-6.4 25.6-3.2 3.2-9.6 6.4-22.4 12.8-12.8 3.2-25.6 6.4-44.8 12.8-16 3.2-35.2 6.4-57.6 9.6-22.4 3.2-41.6 6.4-64 9.6-22.4 3.2-41.6 3.2-60.8 6.4-6.4 0-16 0-22.4 0 0-9.6 0-22.4-3.2-32 0-3.2 0-9.6-3.2-12.8 6.4 0 16 0 22.4 0 22.4 0 41.6-3.2 60.8-6.4 16-3.2 38.4-6.4 64-9.6 22.4-3.2 38.4-6.4 54.4-9.6 16-3.2 28.8-6.4 38.4-9.6 0 0 0 0 0 0 0-9.6 3.2-16 3.2-25.6 0-9.6 0-19.2-3.2-32 0-9.6-3.2-16-3.2-19.2-3.2-3.2-3.2-6.4-6.4-9.6-6.4-6.4-16-9.6-25.6-12.8-12.8-3.2-25.6-9.6-38.4-12.8-16-3.2-32-9.6-44.8-16-19.2-6.4-35.2-16-44.8-25.6-12.8-9.6-22.4-22.4-28.8-38.4-6.4-12.8-9.6-25.6-9.6-38.4l0 0 0 0c0-12.8 0-22.4 3.2-35.2 3.2-9.6 3.2-19.2 9.6-25.6 3.2-9.6 9.6-16 16-22.4 3.2-3.2 9.6-9.6 16-12.8 3.2-3.2 6.4-3.2 9.6-6.4 0 0 0 0 0-3.2 3.2-6.4 6.4-9.6 6.4-16 3.2-6.4 3.2-12.8 6.4-19.2l6.4-25.6 22.4-6.4c0 0 0 0 0 0 0 0 0-3.2 3.2-12.8 0 0 0 0 0-3.2l-16-9.6 0-28.8c0-16 0-35.2-3.2-51.2-3.2-16-6.4-32-12.8-48-3.2-16-12.8-28.8-22.4-38.4-3.2-3.2-6.4-6.4-12.8-12.8-6.4-6.4-12.8-9.6-22.4-12.8-9.6-3.2-19.2-6.4-28.8-9.6-9.6-3.2-19.2-3.2-32-3.2-9.6 0-19.2 0-28.8 3.2-9.6 0-19.2 3.2-25.6 6.4-9.6 3.2-16 9.6-25.6 16-9.6 6.4-16 12.8-22.4 22.4-6.4 9.6-12.8 22.4-16 35.2-3.2 16-6.4 32-9.6 44.8 0 3.2 0 6.4 0 12.8-3.2-16-6.4-32-12.8-51.2-3.2-12.8-9.6-22.4-12.8-35.2 3.2-12.8 9.6-22.4 16-35.2 9.6-12.8 19.2-25.6 32-35.2 12.8-9.6 22.4-16 35.2-22.4C662.4 70.4 675.2 67.2 688 64c12.8-3.2 25.6-3.2 35.2-3.2 16 0 28.8 3.2 41.6 6.4 12.8 3.2 25.6 9.6 38.4 12.8 12.8 6.4 22.4 12.8 32 19.2 9.6 6.4 16 12.8 22.4 22.4 12.8 16 22.4 35.2 28.8 54.4C889.6 192 896 211.2 899.2 230.4c3.2 19.2 3.2 41.6 3.2 60.8 3.2 3.2 6.4 6.4 9.6 9.6 3.2 3.2 3.2 9.6 6.4 12.8 0 6.4 0 12.8 0 19.2-3.2 9.6-3.2 19.2-6.4 25.6-3.2 6.4-6.4 12.8-9.6 16-3.2 3.2-9.6 6.4-12.8 9.6-3.2 9.6-3.2 16-6.4 22.4-3.2 6.4-6.4 12.8-9.6 19.2-3.2 6.4-6.4 12.8-9.6 16-3.2 3.2-9.6 6.4-12.8 9.6-3.2 3.2-6.4 6.4-9.6 9.6-3.2 3.2-6.4 6.4-6.4 9.6-3.2 3.2-3.2 9.6-3.2 16 0 6.4-3.2 16 0 22.4 0 6.4 3.2 16 6.4 22.4 3.2 6.4 9.6 16 16 22.4 9.6 6.4 19.2 12.8 32 19.2 12.8 6.4 25.6 9.6 41.6 12.8 16 3.2 28.8 9.6 41.6 12.8 12.8 6.4 25.6 12.8 38.4 19.2 9.6 9.6 19.2 19.2 22.4 32 3.2 6.4 3.2 16 6.4 28.8 0 12.8 3.2 22.4 3.2 35.2C1027.2 726.4 1027.2 739.2 1024 748.8zM614.4 460.8c-3.2-3.2-9.6-6.4-12.8-12.8 0 0 0-3.2 3.2-3.2 6.4-12.8 9.6-25.6 12.8-41.6 0-3.2 0-6.4 0-6.4 0 3.2 3.2 6.4 3.2 9.6 0 0 0 0 0 0 9.6 6.4 16 12.8 22.4 22.4 9.6 9.6 22.4 28.8 25.6 57.6 0 9.6 0 16 0 25.6 0 12.8-3.2 22.4-6.4 35.2-3.2 12.8-12.8 22.4-22.4 32-9.6 9.6-19.2 16-32 25.6-16 9.6-35.2 19.2-57.6 25.6-3.2 0-6.4 0-6.4 3.2 0 0-3.2 0-3.2 0-12.8-6.4-19.2-9.6-25.6-12.8-6.4-6.4-6.4-9.6-9.6-9.6-3.2-3.2-3.2-6.4-3.2-9.6 12.8-3.2 22.4-6.4 35.2-9.6 16-3.2 32-9.6 44.8-19.2 9.6-6.4 19.2-12.8 25.6-19.2 6.4-6.4 9.6-12.8 12.8-19.2 3.2-6.4 3.2-12.8 3.2-19.2 0-6.4 0-12.8 0-22.4C627.2 476.8 620.8 467.2 614.4 460.8zM572.8 371.2c0 6.4 3.2 12.8 0 22.4-3.2 12.8-3.2 22.4-9.6 28.8-3.2 6.4-6.4 12.8-12.8 16-6.4 3.2-9.6 6.4-16 9.6-3.2 9.6-6.4 19.2-6.4 25.6-3.2 6.4-6.4 16-9.6 22.4-3.2 6.4-9.6 12.8-12.8 16-6.4 3.2-9.6 9.6-16 12.8-3.2 3.2-9.6 6.4-12.8 9.6-3.2 3.2-6.4 6.4-9.6 12.8-3.2 6.4-3.2 9.6-6.4 19.2-3.2 9.6-3.2 19.2-3.2 25.6 0 9.6 3.2 19.2 6.4 25.6 3.2 9.6 9.6 19.2 19.2 25.6 9.6 9.6 22.4 16 38.4 22.4 16 6.4 28.8 9.6 48 16 16 3.2 35.2 9.6 51.2 16 16 6.4 28.8 12.8 41.6 22.4 12.8 9.6 22.4 22.4 25.6 38.4 3.2 9.6 6.4 19.2 6.4 32 0 12.8 3.2 28.8 3.2 41.6 0 12.8 0 25.6-3.2 38.4-3.2 12.8-6.4 22.4-9.6 28.8-3.2 3.2-12.8 9.6-25.6 12.8-12.8 3.2-28.8 9.6-51.2 12.8-19.2 3.2-41.6 9.6-67.2 12.8-25.6 3.2-48 6.4-73.6 9.6-25.6 3.2-48 6.4-70.4 6.4-22.4 3.2-41.6 3.2-60.8 3.2-25.6 0-54.4-3.2-89.6-6.4-35.2-3.2-67.2-9.6-102.4-12.8-32-6.4-60.8-9.6-86.4-16-25.6-6.4-41.6-9.6-44.8-12.8-6.4-3.2-9.6-19.2-12.8-41.6C3.2 844.8 3.2 816 9.6 777.6c3.2-22.4 12.8-38.4 25.6-48 12.8-9.6 28.8-19.2 48-25.6 19.2-6.4 38.4-12.8 57.6-16C163.2 678.4 179.2 672 195.2 662.4c12.8-6.4 22.4-16 28.8-22.4 6.4-6.4 12.8-12.8 12.8-22.4 3.2-6.4 3.2-12.8 3.2-22.4 0-6.4 0-16 0-25.6 0-12.8-6.4-25.6-12.8-32-6.4-6.4-16-16-25.6-22.4C195.2 512 192 508.8 188.8 499.2c-3.2-6.4-6.4-16-9.6-22.4-3.2-9.6-6.4-19.2-9.6-25.6-3.2 0-9.6-3.2-12.8-6.4-3.2-3.2-6.4-6.4-12.8-12.8-3.2-6.4-6.4-12.8-9.6-22.4C134.4 400 131.2 390.4 134.4 384c0-6.4 3.2-16 3.2-19.2 3.2-6.4 6.4-12.8 9.6-19.2 0-22.4 0-44.8 3.2-67.2C153.6 259.2 156.8 240 163.2 217.6c6.4-22.4 16-38.4 25.6-57.6C201.6 147.2 214.4 134.4 227.2 124.8c12.8-9.6 28.8-19.2 41.6-25.6 12.8-6.4 28.8-9.6 41.6-12.8 12.8-3.2 28.8-3.2 41.6-3.2 16 0 32 3.2 48 6.4 16 3.2 28.8 9.6 41.6 16 12.8 6.4 25.6 12.8 35.2 22.4 9.6 6.4 19.2 16 25.6 22.4 16 19.2 25.6 38.4 32 60.8 6.4 22.4 12.8 44.8 16 64 3.2 22.4 6.4 48 3.2 70.4 3.2 3.2 6.4 6.4 9.6 9.6C569.6 361.6 569.6 364.8 572.8 371.2zM528 380.8l-16-9.6 0-28.8c0-19.2 0-41.6-3.2-60.8-3.2-16-6.4-35.2-12.8-57.6-6.4-16-12.8-32-25.6-48-3.2-6.4-9.6-9.6-16-16-6.4-6.4-16-12.8-28.8-16-9.6-6.4-22.4-9.6-35.2-12.8C377.6 131.2 364.8 128 352 128c-9.6 0-22.4 0-35.2 3.2-9.6 3.2-22.4 6.4-32 9.6C275.2 144 265.6 150.4 256 160 243.2 166.4 236.8 176 227.2 188.8 217.6 201.6 211.2 214.4 208 230.4 201.6 249.6 198.4 268.8 195.2 284.8 195.2 304 192 323.2 192 342.4l0 16-9.6 12.8c-3.2 3.2-3.2 3.2-3.2 6.4 0 3.2-3.2 6.4-3.2 9.6 0 0 0 3.2 0 9.6 3.2 6.4 3.2 9.6 3.2 9.6 0 0 3.2 3.2 3.2 3.2l22.4 6.4 6.4 22.4c3.2 9.6 6.4 16 6.4 25.6C224 470.4 227.2 476.8 227.2 480c0 3.2 0 3.2 3.2 3.2 9.6 9.6 19.2 16 28.8 25.6 9.6 9.6 25.6 28.8 25.6 60.8 0 9.6 0 19.2 0 28.8 0 12.8-3.2 25.6-6.4 38.4-3.2 12.8-12.8 25.6-22.4 35.2-9.6 9.6-22.4 19.2-35.2 28.8-19.2 12.8-41.6 22.4-64 28.8-19.2 6.4-38.4 9.6-54.4 16-12.8 6.4-25.6 9.6-35.2 19.2-3.2 0-6.4 6.4-9.6 22.4-6.4 32-6.4 57.6-3.2 80 0 6.4 0 9.6 3.2 12.8 6.4 0 12.8 3.2 22.4 6.4 22.4 6.4 51.2 9.6 83.2 16 32 6.4 64 9.6 99.2 12.8 35.2 3.2 64 6.4 86.4 6.4 16 0 35.2 0 54.4-3.2 25.6-3.2 48-3.2 70.4-6.4 19.2-3.2 44.8-6.4 73.6-9.6 25.6-3.2 44.8-6.4 64-12.8 16-3.2 32-9.6 44.8-12.8 0 0 3.2 0 3.2 0 0 0 0-3.2 0-3.2 3.2-9.6 3.2-19.2 3.2-32 0-12.8 0-22.4-3.2-35.2 0-12.8-3.2-19.2-3.2-22.4-3.2-6.4-6.4-9.6-9.6-16-9.6-6.4-19.2-12.8-32-16-16-6.4-28.8-9.6-44.8-12.8-19.2-6.4-35.2-9.6-51.2-16-22.4-9.6-38.4-19.2-51.2-28.8-12.8-12.8-25.6-25.6-32-41.6-6.4-12.8-9.6-28.8-9.6-41.6l0 0 0 0c0-12.8 0-25.6 3.2-38.4 3.2-9.6 3.2-19.2 9.6-28.8 3.2-9.6 9.6-19.2 19.2-25.6 6.4-6.4 12.8-9.6 19.2-16 3.2-3.2 6.4-6.4 9.6-9.6 0 0 0 0 3.2-3.2 3.2-6.4 6.4-12.8 6.4-16 3.2-6.4 3.2-16 6.4-22.4l6.4-25.6 22.4-6.4c0 0 0 0 0 0l0 0c0 0 0 0 3.2-3.2 0 0 3.2-3.2 3.2-16C528 384 528 384 528 380.8z" fill="#eb4f38"></path></g></g></svg>