<?xml version="1.0" standalone="no"?><!DOCTYPE svg PUBLIC "-//W3C//DTD SVG 1.1//EN" "http://www.w3.org/Graphics/SVG/1.1/DTD/svg11.dtd"><svg width="32" height="32" viewBox="0 0 32 32" version="1.1" xmlns="http://www.w3.org/2000/svg" xmlns:xlink="http://www.w3.org/1999/xlink"><defs><style type="text/css"><![CDATA[
@font-face { font-family: ifont; src: url("http://at.alicdn.com/t/font_1442373896_4754455.eot?#iefix") format("embedded-opentype"), url("http://at.alicdn.com/t/font_1442373896_4754455.woff") format("woff"), url("http://at.alicdn.com/t/font_1442373896_4754455.ttf") format("truetype"), url("http://at.alicdn.com/t/font_1442373896_4754455.svg#ifont") format("svg"); }

]]></style></defs><g class="transform-group"><g transform="scale(0.03125, 0.03125)"><path d="M959.696462 370.917798c-0.493234 1.410116-0.99056 2.800789-1.454118 4.210905-5.358031 17.251919-19.822464 27.962865-38.031175 27.962865-81.141018 0.033769-162.277944 0.019443-243.385193 0.049119-3.254114 0-6.845918-1.083681-8.609075 3.469008-1.551332 4.055362-4.025687 7.027044-0.804319 12.156878 6.656607 10.56052 5.729491 21.642926-1.582031 31.91078-1.731434 2.430352-3.869121 4.582365-5.978155 6.704702-28.831652 28.847002-57.663304 57.682747-86.524632 86.514399-15.763009 15.72924-31.68156 15.669888-47.571459-0.190335-16.553001-16.504906-33.091676-33.073256-49.644677-49.610908-1.605567-1.610684-3.322675-3.128247-6.330172-5.944386l0 8.857738c0 52.148707 0.122797 104.302531-0.12075 156.451238-0.049119 7.652284-1.161453 15.426341-3.050476 22.824845-2.449795 9.540284-8.749268 16.822131-17.436114 21.341051-4.244674 2.200108-4.972245 4.864798-4.956895 9.076726 0.112564 48.928363-0.293689 97.856725 0.264013 146.794297 0.185218 16.163121-4.983501 27.435862-20.736277 32.765241L312.954665 886.261962c-15.767102-5.358031-20.920472-16.631796-20.74958-32.765241 0.571005-48.936549 0.170892-97.894587 0.278339-146.827043 0.013303-4.211928-0.741897-6.90527-5.001921-9.042957-8.082072-4.118807-14.289448-10.810207-16.739243-19.540032-2.210341-7.959276-3.620457-16.415878-3.669576-24.653493-0.322341-52.148707-0.170892-104.303554-0.170892-156.470681l0-8.857738c-3.036149 2.883677-4.753257 4.411473-6.363941 6.0416-16.568351 16.533558-33.086559 33.086559-49.63956 49.625234-15.874549 15.826454-31.774681 15.85613-47.585785 0.063445-27.328415-27.314089-54.535057-54.769394-82.034365-81.897242-8.100492-7.974625-15.391549-16.104793-16.97358-27.891234l0-1.283226c1.039679-3.699252 1.658779-7.55507 3.1569-11.053754 8.330736-19.280112 32.272008-23.122627 48.142463-7.481392 22.341844 21.99085 44.36544 44.273343 66.535369 66.427922 1.610684 1.610684 3.332908 3.112897 5.777587 5.40715 1.674129-2.122337 2.850931-3.981684 4.354168-5.480828 21.520129-21.589714 43.012629-43.203988 64.739467-64.603367 2.756787-2.727111 6.484691-5.279237 10.183943-6.114255 24.65554-5.641487 49.802266-4.987594 75.583442-5.500271 8.286734 66.107627 16.504906 131.758859 24.727171 197.444884 0.576121-0.033769 1.1328-0.033769 1.689479-0.062422 8.237615-65.686025 16.460904-131.402749 24.839735-198.265576 22.360264 1.410116 43.739177 2.651386 65.109903 4.182252 10.219759 0.727571 18.549471 4.909823 25.595958 12.884448 9.072633 10.277064 19.261693 19.554358 28.988218 29.27986 11.815093 11.815093 23.629163 23.644513 35.400255 35.428907 0.912789-0.560772 1.546216-0.789992 1.991354-1.224898 21.433148-21.38403 42.803875-42.798758 64.265676-64.139809 3.898797-3.869121 7.740288-7.987928 12.292977-10.974959 3.714602-2.465145 8.452509-3.420913 12.727882-5.045923 0-0.248663-0.029676-0.512676-0.063445-0.76134l-6.133697 0c-23.3805 0-46.790676 0.092098-70.186526-0.029676-21.404496-0.112564-38.421055-17.081027-38.449707-38.465057-0.078795-62.885236-0.107447-125.785821 0.028653-188.679243 0.029676-12.791327 5.358031-23.429619 16.025998-30.627555 4.846378-3.284813 10.70276-5.095042 16.104793-7.573489L927.487899 137.734968c17.030885 4.445242 27.782763 15.142885 32.208563 32.208563C959.696462 236.944504 959.696462 303.929104 959.696462 370.917798L959.696462 370.917798zM368.416837 378.598734c-42.038442 0.029676-76.071559-34.06791-75.984578-76.104305 0.094144-41.593304 34.224476-75.69089 75.841316-75.738985 41.84299-0.045025 76.110445 34.3309 75.984578 76.246545C444.13638 344.716043 410.166707 378.584408 368.416837 378.598734L368.416837 378.598734zM368.416837 378.598734" fill="#eb4f38"></path></g></g></svg>