<?xml version="1.0" standalone="no"?><!DOCTYPE svg PUBLIC "-//W3C//DTD SVG 1.1//EN" "http://www.w3.org/Graphics/SVG/1.1/DTD/svg11.dtd"><svg width="32" height="32" viewBox="0 0 32 32" version="1.1" xmlns="http://www.w3.org/2000/svg" xmlns:xlink="http://www.w3.org/1999/xlink"><defs><style type="text/css"><![CDATA[
@font-face { font-family: ifont; src: url("http://at.alicdn.com/t/font_1442373896_4754455.eot?#iefix") format("embedded-opentype"), url("http://at.alicdn.com/t/font_1442373896_4754455.woff") format("woff"), url("http://at.alicdn.com/t/font_1442373896_4754455.ttf") format("truetype"), url("http://at.alicdn.com/t/font_1442373896_4754455.svg#ifont") format("svg"); }

]]></style></defs><g class="transform-group"><g transform="scale(0.03125, 0.03125)"><path d="M829.28128 995.02592c-11.79136-0.00512-23.25504-5.71392-34.07872-16.9728-8.61184-8.94976-12.79488-18.88256-12.45184-29.51168 0.50688-15.0272 9.82528-27.648 15.3344-33.83296 1.81248-2.03776 1.71008-5.1456-0.23552-7.05536l-87.76192-86.24128c-0.99328-0.97792-2.28864-1.46944-3.58912-1.46944-1.23392 0-2.46784 0.44544-3.45088 1.33632l-53.24288 48.55296c-8.31488 7.06048-17.83296 10.7008-28.17024 10.7008-30.47936 0-58.88-31.26272-59.16672-31.58016-39.68512-38.07232-10.0352-78.96064-8.7552-80.68608l39.76704-40.82688c0.9728-0.9984 1.50016-2.36032 1.44384-3.75808-0.0512-1.39776-0.67584-2.71872-1.72544-3.64544l-75.82208-66.97984c-0.96256-0.86016-2.18112-1.28512-3.38944-1.28512-1.26976 0-2.5344 0.47104-3.51744 1.39776L437.18656 722.4832c-1.00352 0.95232-1.58208 2.26304-1.60256 3.65056-0.01536 1.3824 0.52224 2.7136 1.50016 3.69152l31.72352 31.72352c12.19584 11.54048 30.4128 39.8592 12.81024 65.14688-12.11904 17.408-43.70432 57.9072-75.20256 57.9072-8.4992 0-16.4096-3.03616-23.50592-9.01632-24.53504-20.67968-48.41472-44.44672-57.54368-53.69856-0.9984-1.01376-2.32448-1.52576-3.64544-1.52576-1.29024 0-2.5856 0.4864-3.584 1.46432l-87.9616 86.2208c-1.95072 1.90976-2.05312 5.0176-0.23552 7.06048 5.07904 5.69344 13.70112 17.408 14.43328 31.90784 0.56832 11.22816-3.74784 21.94944-12.8256 31.872-8.832 9.96352-19.52768 14.99136-31.8464 14.99136-15.5136 0-28.19584-8.22272-28.31872-8.30464l-0.45056-0.45568c-18.56-18.57024-112.08192-112.22528-130.3552-131.98848l-3.92192-4.1984c-17.87904-19.03616-29.68064-31.60576-3.15392-65.15712 8.38144-10.5984 18.6112-15.9744 30.40256-15.9744 14.74048 0 28.07808 8.28928 34.7136 13.23008 0.91136 0.68096 1.98656 1.01376 3.05664 1.01376 1.31072 0 2.61632-0.50176 3.6096-1.4848l86.27712-85.504c0.96768-0.95744 1.5104-2.25792 1.51552-3.62496 0-1.36192-0.53248-2.66752-1.50016-3.63008l-22.68672-22.69696c-31.5904-29.64992-35.54304-52.67456-35.8912-55.19872-0.03584-0.26624-0.09728-0.53248-0.17408-0.78336-10.91584-36.13696 39.15264-70.2976 41.2928-71.73632 11.83744-9.71264 23.91552-14.4896 36.29568-14.4896 21.03808 0 35.38432 13.56288 35.98336 14.14656l38.1952 38.18496c0.96256 0.96256 2.26304 1.50016 3.61984 1.50016 0.04096 0 0.08192 0 0.12288 0 1.39776-0.03584 2.72896-0.64512 3.66592-1.67936l58.09152-64.06144c0.91648-1.01376 1.39264-2.35008 1.32096-3.71712s-0.6912-2.64192-1.71008-3.55328c-25.14432-22.3488-153.46688-136.45312-210.89792-187.92448C75.15648 258.75968 64.83456 224.4608 64.42496 223.03232c-1.85344-20.52608-10.9312-122.2144-11.70432-153.76384-0.24576-10.112 2.47808-18.15552 8.0896-23.90528C69.65248 36.3008 82.59584 35.84 85.09952 35.84c2.8672 0.26112 65.67936 6.35392 125.14304 9.61024 57.44128 3.15904 75.65312 28.57984 77.5424 31.46752 0.13824 0.21504 0.29184 0.41472 0.4608 0.60416l222.18752 249.43616c0.96768 1.09056 2.36032 1.7152 3.81952 1.7152 0 0 0 0 0 0 1.4592 0 2.84672-0.62464 3.82464-1.71008 18.68288-20.95616 183.42912-205.74208 214.03648-240.97792 30.04416-34.6112 54.62528-36.36224 59.24352-36.36224 0.16896 0 0.65024 0 0.8192-0.02048 5.39136-0.54272 132.29056-13.3376 158.04416-13.75232L950.83008 35.84c20.34688 0 26.80832 18.8672 27.38176 28.84096-0.10752 1.26976-10.0864 127.98464-13.78304 160.4352-3.584 31.5136-38.04672 56.81152-41.96352 59.59168-0.1536 0.11264-0.31232 0.2304-0.45056 0.36352l-245.65248 220.1856c-1.03936 0.93184-1.65376 2.24768-1.69984 3.64032-0.0512 1.39264 0.47616 2.74944 1.44896 3.74784l61.54752 63.04256c0.96256 0.98304 2.2784 1.54112 3.65568 1.54624 0 0 0.00512 0 0.01024 0 1.37216 0 2.68288-0.54784 3.64544-1.52576 10.17856-10.33216 34.68288-35.00032 42.30656-40.97536 9.4208-7.38304 19.56352-11.13088 30.15168-11.13088 17.90976 0 36.58752 10.49088 55.51104 31.17568 43.66848 47.75936 14.592 80.16384 13.33248 81.52064l-49.90976 50.67776c-1.96096 1.9968-1.96096 5.20192 0.00512 7.18848l87.76192 88.92416c0.9984 1.01376 2.31936 1.52576 3.64544 1.52576 1.2288 0 2.4576-0.44032 3.44064-1.32608 10.1376-9.19552 17.536-12.0064 18.90816-12.47744 4.6592-1.88928 9.14432-2.79552 13.6192-2.79552 16.71168 0 28.88704 12.45696 30.21312 13.8752 28.2624 24.8064 10.12224 53.7088 9.33376 54.93248l-1.5872 1.59232c-29.1328 29.53728-124.97408 126.73024-135.03488 137.51808C860.01664 983.07072 846.31552 995.02592 829.28128 995.02592L829.28128 995.02592zM706.5088 765.66016c12.59008 0.00512 21.55008 10.46016 22.528 11.648 6.8096 6.85568 58.01472 58.03008 94.15168 93.76768 16.22016 16.0512 22.76352 33.62304 19.45088 52.22912-0.39424 2.21696 0.70144 4.42368 2.69312 5.44768 0.74752 0.384 1.54624 0.56832 2.34496 0.56832 1.34656 0 2.66752-0.53248 3.65568-1.536l82.01728-83.69664c1.5616-1.59232 1.90976-3.99872 0.87552-5.96992-0.896-1.69984-2.65728-2.73408-4.5312-2.73408-0.29184 0-0.5888 0.0256-0.88576 0.0768-2.01728 0.35328-4.00384 0.53248-5.9136 0.53248-14.94016 0-20.9408-10.9056-21.57568-12.14976-0.256-0.49664-0.58368-0.95232-0.98304-1.34144l-99.68128-97.09568c-13.43488-13.53216-20.18816-25.75872-20.0192-36.29056 0.128-7.61344 3.95776-11.3408 4.1216-11.4944 0.51712-0.52224 42.17344-43.008 58.50112-58.91072 5.94944-5.79072 8.86272-11.2896 8.65792-16.34816-0.19456-4.65408-3.00544-7.41888-3.8656-8.15616-0.21504-0.4352-0.50176-0.83456-0.83456-1.19296-1.3824-1.99168-5.40672-7.08096-15.65184-16.09216-4.06528-3.57376-8.1664-5.38624-12.19584-5.38624-6.17472 0-10.30656 4.352-11.06944 5.2224-1.8688 1.89952-173.4656 173.47584-198.1952 196.54656l-3.54816 3.30752c-22.656 21.05344-25.9072 25.1392-8.14592 45.99808 6.50752 7.63904 13.24032 11.51488 19.9936 11.51488 8.26368 0 13.62944-5.7856 14.21312-6.44608 6.89152-6.41024 29.99808-28.0832 51.44576-50.61632C691.26144 769.50016 698.80832 765.66016 706.5088 765.66016L706.5088 765.66016zM86.87104 824.47872c-1.88928 0-3.65568 1.04448-4.54656 2.7648-1.03424 1.9968-0.64 4.43392 0.96256 6.01088l84.1216 82.6368c0.97792 0.96256 2.27328 1.46432 3.58912 1.46432 0.70144 0 1.408-0.14336 2.07872-0.44032 1.92-0.86016 3.1232-2.80064 3.03104-4.89984-0.0256-0.5888-0.03584-1.1776-0.0256-1.78688 0.13824-8.73472 4.35712-17.00352 12.53376-24.61184 25.43104-23.66464 104.6784-103.3728 113.62816-112.384 0.27648-0.2816 8.82176-8.96512 19.90656-8.96512 5.9136 0 11.48928 2.44736 16.57344 7.2704 18.19136 17.23904 59.83744 57.9584 60.13952 58.26048 1.13664 1.08544 5.02784 4.36736 10.9824 4.36736 5.87776 0 11.88864-3.14368 17.87392-9.34912 0.55296-0.384 13.30176-9.41056 14.4896-20.3008 0.4864-4.40832-1.01376-8.5504-4.45952-12.288-12.12416-13.16864-116.51584-115.53792-148.21888-146.60096-0.22016-0.22016-0.46592-0.41984-0.72192-0.59392l-61.01504-60.56448c-6.90688-7.7056-13.63456-11.71968-19.79904-11.71968-7.71072 0-12.62592 6.34368-13.74208 8.57088-6.86592 5.5552-15.16032 14.27456-15.08352 23.13216 0.05632 6.21056 4.20352 9.66656 4.67968 10.04032 1.13664 1.56672 10.91072 14.94528 44.3648 46.43328 13.06624 12.29824 19.29216 23.95136 18.5088 34.61632-0.73728 10.10176-7.72608 15.96416-9.11872 17.03936-0.1536 0.11776-0.30208 0.24576-0.44032 0.384-5.94432 5.77536-59.08992 57.4464-93.77792 92.52864-13.1584 13.312-28.1856 20.06016-44.66688 20.06016-3.62496 0-7.30624-0.3328-10.93632-0.98816C87.48032 824.50432 87.17312 824.47872 86.87104 824.47872zM104.18176 81.55136c-1.32096 0-2.59584 0.512-3.5584 1.43872-1.08032 1.04448-1.64864 2.51392-1.55136 4.01408l0.3072 4.6592c1.22368 18.72384 3.83488 58.6752 5.98528 92.50816 2.75968 43.37664 15.55456 54.73792 17.00352 55.89504l3.67104 3.30752c62.22336 55.82336 211.1488 189.12768 250.07616 221.16864 20.13696 16.57344 30.3872 31.44192 30.47424 44.1856 0.0512 7.72096-3.72736 11.87328-4.88448 12.96384l-78.03392 85.23264c-1.85344 2.02752-1.78176 5.15584 0.16896 7.0912l73.4464 72.91392c0.9984 0.98816 2.304 1.4848 3.6096 1.4848 1.24928 0 2.49344-0.45056 3.47648-1.36192l84.13696-77.83936c0.40448-0.41472 12.09344-12.73344 26.34752-12.73344 6.09792 0 11.78624 2.2784 16.90112 6.77888 16.70144 14.67392 73.64608 64.49664 94.94016 83.11808 0.96768 0.8448 2.17088 1.26464 3.36896 1.26464 1.33632 0 2.66752-0.52224 3.67104-1.55136l70.66112-72.57088c1.93536-1.99168 1.93536-5.16608-0.01024-7.14752-11.23328-11.48928-49.59232-50.88768-71.296-75.40224-8.61696-9.71264-12.43136-19.22048-11.3408-28.25216 1.32096-10.97216 9.4976-17.60256 11.12576-18.816 0.14848-0.11264 0.29696-0.2304 0.43008-0.36352 8.17152-7.6544 200.61184-187.89888 244.62336-219.97568 43.5456-31.744 41.87648-54.96832 41.7792-55.94624l11.91936-118.77376c0.1536-1.52576-0.384-3.03616-1.46432-4.1216-0.96256-0.96768-2.27328-1.5104-3.63008-1.5104-0.15872 0-0.32256 0.00512-0.4864 0.02048-22.3488 2.1248-96.9472 9.07264-118.30784 9.43616-25.24672 0.41984-35.11808 15.8976-35.21536 16.05632l-216.45312 243.52256c-0.18432 0.20992-0.35328 0.43008-0.50688 0.6656-13.34272 21.12-27.31008 31.83104-41.50272 31.83104-12.14976 0-20.02432-8.27904-20.10112-8.36096-49.19808-55.15776-234.55744-263.3216-241.52576-272.85504-5.4016-7.40352-18.10432-10.04032-28.18048-10.04032l-1.09568 0.01536-118.46144-11.93472C104.5248 81.55648 104.35072 81.55136 104.18176 81.55136z" fill="#eb4f38"></path></g></g></svg>