<?xml version="1.0" standalone="no"?><!DOCTYPE svg PUBLIC "-//W3C//DTD SVG 1.1//EN" "http://www.w3.org/Graphics/SVG/1.1/DTD/svg11.dtd"><svg width="32" height="32" viewBox="0 0 32 32" version="1.1" xmlns="http://www.w3.org/2000/svg" xmlns:xlink="http://www.w3.org/1999/xlink"><defs><style type="text/css"><![CDATA[
@font-face { font-family: ifont; src: url("http://at.alicdn.com/t/font_1442373896_4754455.eot?#iefix") format("embedded-opentype"), url("http://at.alicdn.com/t/font_1442373896_4754455.woff") format("woff"), url("http://at.alicdn.com/t/font_1442373896_4754455.ttf") format("truetype"), url("http://at.alicdn.com/t/font_1442373896_4754455.svg#ifont") format("svg"); }

]]></style></defs><g class="transform-group"><g transform="scale(0.03125, 0.03125)"><path d="M187.733333 633.617067l-34.133333 0 0-184.797867c0-172.7488 167.458133-324.266667 358.4-324.266667 197.632 0 358.4 160.768 358.4 358.4l0 136.533333-34.133333 0 0-136.533333c0-178.7904-145.476267-324.266667-324.266667-324.266667-185.617067 0-324.266667 153.156267-324.266667 290.133333L187.733333 633.617067zM187.733333 814.148267c-56.456533 0-102.4-45.943467-102.4-102.4s45.943467-102.4 102.4-102.4c14.097067 0 27.886933 2.935467 40.994133 8.669867L238.933333 622.4896l0 178.517333-10.24 4.471467C215.552 811.246933 201.796267 814.148267 187.733333 814.148267zM187.733333 643.4816c-37.649067 0-68.266667 30.6176-68.266667 68.266667s30.6176 68.266667 68.266667 68.266667c5.768533 0 11.4688-0.7168 17.066667-2.184533l0-132.096C199.236267 644.1984 193.501867 643.4816 187.733333 643.4816zM273.066667 899.4816c-37.649067 0-68.266667-30.6176-68.266667-68.266667l0-41.335467 34.133333 0 0 41.335467c0 18.8416 15.291733 34.133333 34.133333 34.133333s34.133333-15.291733 34.133333-34.133333l0-238.933333c0-18.8416-15.291733-34.133333-34.133333-34.133333s-34.133333 15.291733-34.133333 34.133333l0 41.3696L204.8 633.6512l0-41.3696c0-37.649067 30.6176-68.266667 68.266667-68.266667s68.266667 30.6176 68.266667 68.266667l0 238.933333C341.333333 868.829867 310.715733 899.4816 273.066667 899.4816zM836.266667 814.148267c-14.062933 0-27.818667-2.901333-40.96-8.635733L785.066667 801.041067l0-178.517333 10.205867-4.5056c13.1072-5.7344 26.897067-8.669867 40.994133-8.669867 56.456533 0 102.4 45.943467 102.4 102.4S892.7232 814.148267 836.266667 814.148267zM819.2 777.796267c5.597867 1.467733 11.298133 2.184533 17.066667 2.184533 37.649067 0 68.266667-30.6176 68.266667-68.266667s-30.6176-68.266667-68.266667-68.266667c-5.768533 0-11.502933 0.7168-17.066667 2.218667L819.2 777.796267zM750.933333 899.4816c-37.649067 0-68.266667-30.6176-68.266667-68.266667l0-238.933333c0-37.649067 30.6176-68.266667 68.266667-68.266667s68.266667 30.6176 68.266667 68.266667l0 41.3696-34.133333 0 0-41.3696c0-18.8416-15.291733-34.133333-34.133333-34.133333s-34.133333 15.291733-34.133333 34.133333l0 238.933333c0 18.8416 15.291733 34.133333 34.133333 34.133333s34.133333-15.291733 34.133333-34.133333l0-41.335467 34.133333 0 0 41.335467C819.2 868.829867 788.5824 899.4816 750.933333 899.4816z" fill="#eb4f38"></path></g></g></svg>