<?xml version="1.0" standalone="no"?><!DOCTYPE svg PUBLIC "-//W3C//DTD SVG 1.1//EN" "http://www.w3.org/Graphics/SVG/1.1/DTD/svg11.dtd"><svg width="64" height="64" viewBox="0 0 64 64" version="1.1" xmlns="http://www.w3.org/2000/svg" xmlns:xlink="http://www.w3.org/1999/xlink"><defs><style type="text/css"><![CDATA[
@font-face { font-family: ifont; src: url("http://at.alicdn.com/t/font_1442373896_4754455.eot?#iefix") format("embedded-opentype"), url("http://at.alicdn.com/t/font_1442373896_4754455.woff") format("woff"), url("http://at.alicdn.com/t/font_1442373896_4754455.ttf") format("truetype"), url("http://at.alicdn.com/t/font_1442373896_4754455.svg#ifont") format("svg"); }

]]></style></defs><g class="transform-group"><g transform="scale(0.0625, 0.0625)"><path d="M773.317099 934.972361c-4.456498 0-8.909927-1.37737-12.69309-4.124947L510.846222 749.377362l-249.768577 181.470051c-7.575536 5.494131-17.809621 5.494131-25.385157 0-7.562233-5.496178-10.732435-15.243169-7.843642-24.1357l95.407953-293.625434L73.48106 431.616228c-7.563256-5.496178-10.732435-15.244192-7.844665-24.134677 2.895957-8.897647 11.18269-14.921851 20.536732-14.921851l308.736597 0 95.401814-293.625434c2.895957-8.897647 11.181667-14.920828 20.534685-14.920828 9.356089 0 17.641799 6.022157 20.537755 14.920828l95.407953 293.625434L935.530574 392.559701c9.346879 0 17.639752 6.024204 20.535709 14.921851 2.880607 8.890484-0.280386 18.638499-7.844665 24.134677L698.438715 613.085256l95.415117 293.625434c2.880607 8.891508-0.282433 18.639522-7.843642 24.1357C782.230096 933.594991 777.772574 934.972361 773.317099 934.972361zM152.624585 435.743222l208.704322 151.633512c7.563256 5.497201 10.732435 15.245216 7.843642 24.136723l-79.720669 245.340731 208.704322-151.627373c7.574512-5.496178 17.806551-5.496178 25.385157 0l208.704322 151.627373-79.727833-245.340731c-2.882654-8.890484 0.279363-18.639522 7.841595-24.136723l208.725812-151.633512L611.10567 435.743222c-9.355065 0-17.640776-6.024204-20.536732-14.920828l-79.722716-245.349941-79.712483 245.349941c-2.89698 8.896624-11.183713 14.920828-20.535709 14.920828L152.624585 435.743222z" fill="#eb4f38"></path></g></g></svg>