<?xml version="1.0" standalone="no"?><!DOCTYPE svg PUBLIC "-//W3C//DTD SVG 1.1//EN" "http://www.w3.org/Graphics/SVG/1.1/DTD/svg11.dtd"><svg width="32" height="32" viewBox="0 0 32 32" version="1.1" xmlns="http://www.w3.org/2000/svg" xmlns:xlink="http://www.w3.org/1999/xlink"><defs><style type="text/css"><![CDATA[
@font-face { font-family: ifont; src: url("http://at.alicdn.com/t/font_1442373896_4754455.eot?#iefix") format("embedded-opentype"), url("http://at.alicdn.com/t/font_1442373896_4754455.woff") format("woff"), url("http://at.alicdn.com/t/font_1442373896_4754455.ttf") format("truetype"), url("http://at.alicdn.com/t/font_1442373896_4754455.svg#ifont") format("svg"); }

]]></style></defs><g class="transform-group"><g transform="scale(0.03125, 0.03125)"><path d="M622.293333 341.333333 512 451.626667 401.706667 341.333333 341.333333 401.706667 451.626667 512 341.333333 622.293333 401.706667 682.666667 512 572.373333 622.293333 682.666667 682.666667 622.293333 572.373333 512 682.666667 401.706667 622.293333 341.333333zM512 85.333333C276.266667 85.333333 85.333333 276.266667 85.333333 512s190.933333 426.666667 426.666667 426.666667 426.666667-190.933333 426.666667-426.666667S747.733333 85.333333 512 85.333333zM512 853.333333c-188.16 0-341.333333-153.173333-341.333333-341.333333S323.84 170.666667 512 170.666667s341.333333 153.173333 341.333333 341.333333S700.16 853.333333 512 853.333333z" fill="#000000"></path></g></g></svg>